<svg width="120" height="18" viewBox="0 0 120 18" fill="none" xmlns="http://www.w3.org/2000/svg">
<g clip-path="url(#clip0_44_1746)">
<path d="M21.7179 17.5764C26.5328 17.5764 30.4361 13.6505 30.4361 8.80765C30.4361 3.96483 26.5328 0.0389404 21.7179 0.0389404C16.9029 0.0389404 12.9996 3.96483 12.9996 8.80765C12.9996 13.6505 16.9029 17.5764 21.7179 17.5764Z" fill="black"/>
<path d="M4.31384 8.80735C4.31384 13.6503 8.21603 17.5761 13.0321 17.5761L13.0321 0.0389404C8.21724 0.0389404 4.31384 3.96503 4.31384 8.80735Z" fill="black"/>
<path d="M0 8.80722C0 12.053 1.75447 14.8864 4.35926 16.4028L4.35926 1.21228C1.75326 2.72834 0 5.56204 0 8.80722Z" fill="black"/>
<path d="M119.82 1.42416C119.714 1.16892 119.557 0.93845 119.359 0.747204C119.16 0.559306 118.927 0.411743 118.672 0.312563C118.132 0.102518 117.534 0.102518 116.994 0.312563C116.739 0.411507 116.506 0.559086 116.306 0.747204C116.108 0.938092 115.952 1.16868 115.847 1.42416C115.733 1.69746 115.676 1.99126 115.678 2.28765C115.678 2.69974 115.775 3.06935 115.968 3.3965C116.153 3.71642 116.423 3.97813 116.748 4.1524C117.083 4.32666 117.455 4.41758 117.833 4.41758C118.21 4.41758 118.582 4.32666 118.917 4.1524C119.242 3.97794 119.512 3.71631 119.699 3.3965C119.893 3.06955 119.99 2.69994 119.99 2.28765C119.992 1.99114 119.934 1.69725 119.82 1.42416ZM119.398 2.99965C119.321 3.20562 119.202 3.39303 119.048 3.54984C118.895 3.70664 118.711 3.82936 118.507 3.91009C118.294 3.99683 118.066 4.04053 117.836 4.03871C117.608 4.04015 117.381 3.99645 117.17 3.91009C116.969 3.82893 116.786 3.70844 116.632 3.5556C116.476 3.39707 116.354 3.20781 116.273 2.99965C116.184 2.77313 116.139 2.53134 116.141 2.28765C116.139 2.04908 116.184 1.81243 116.273 1.59149C116.354 1.3882 116.476 1.20407 116.632 1.05078C116.787 0.901148 116.97 0.78407 117.17 0.706358C117.417 0.611344 117.681 0.569989 117.945 0.585012C118.208 0.600036 118.466 0.671101 118.701 0.793534C118.955 0.932131 119.165 1.1407 119.306 1.3949C119.453 1.65519 119.526 1.95278 119.526 2.28765C119.529 2.53108 119.485 2.77276 119.398 2.99965Z" fill="black"/>
<path d="M118.658 2.13213C118.725 2.02719 118.761 1.9044 118.76 1.77917C118.764 1.65724 118.741 1.53593 118.691 1.42469C118.645 1.33099 118.569 1.25578 118.475 1.21134C118.372 1.16132 118.262 1.1276 118.149 1.11136C118.001 1.09116 117.851 1.08199 117.701 1.08393H117.013V3.33943H117.476V2.47898H117.904L118.36 3.33943L118.868 3.33943L118.351 2.37902C118.475 2.32907 118.582 2.24316 118.658 2.13213ZM118.179 2.03825C118.1 2.09392 117.973 2.12176 117.8 2.12176H117.476V1.45121H117.776C117.944 1.45121 118.072 1.47549 118.162 1.52406C118.252 1.57262 118.297 1.65939 118.297 1.78436C118.297 1.89774 118.258 1.98206 118.179 2.03733V2.03825Z" fill="black"/>
<path d="M42.8362 7.63572L41.3597 7.34769C38.8357 6.81978 38.0498 6.19586 38.0498 4.82823C38.0498 3.53254 39.0498 2.7169 41.0977 2.7169C43.7899 2.7169 44.7174 3.74864 44.8366 5.57225H47.9559C47.837 2.35694 45.8127 0.10144 41.0502 0.10144C36.978 0.10144 34.7635 2.09299 34.7635 4.92425C34.7635 8.01946 36.9306 9.4831 40.2169 10.1058L41.6456 10.3938C44.2413 10.9217 45.1221 11.5216 45.1221 12.8651C45.1221 14.4726 43.9076 15.3364 41.693 15.3364C39.3357 15.3364 37.5489 14.6168 37.502 11.9294H34.3348C34.3587 15.8643 37.0733 17.9519 41.5978 17.9519C45.8366 17.9519 48.4559 16.0804 48.4559 12.6972C48.4559 9.98693 46.8367 8.42759 42.8362 7.63572Z" fill="black"/>
<path d="M55.3311 4.90021C51.6875 4.90021 49.2588 7.49099 49.2588 11.3787C49.2588 15.3377 51.7592 17.8571 55.3786 17.8571C58.3315 17.8571 60.4747 16.2496 61.0936 13.7302H58.2124C57.7586 14.8339 56.8312 15.5056 55.4025 15.5056C53.664 15.5056 52.4259 14.522 52.2114 12.3144L61.4034 12.3144V11.5948C61.4034 7.65953 59.0935 4.90021 55.3311 4.90021ZM52.2353 10.2037C52.5212 8.16428 53.7118 7.25233 55.3072 7.25233C57.0919 7.25233 58.1649 8.45201 58.4029 10.2037L52.2353 10.2037Z" fill="black"/>
<path d="M73.2604 8.61947C73.2604 6.38805 71.8084 4.90094 68.1406 4.90094C64.3065 4.90094 62.7825 6.50874 62.6158 9.1239H65.5688C65.6877 7.61241 66.4022 7.15644 68.1167 7.15644C69.8552 7.15644 70.3552 7.7325 70.3552 8.692C70.3552 9.60396 69.7599 9.96392 68.6168 10.1078L66.7594 10.2757C63.2825 10.611 62.0444 12.074 62.0444 14.1387C62.0444 16.5381 63.8543 17.8573 66.4736 17.8573C68.2834 17.8573 69.6168 17.2096 70.4266 16.059C70.4741 16.6588 70.5694 17.2346 70.7593 17.5704H73.7598C73.427 17.0907 73.2598 16.1074 73.2598 15.2192L73.2604 8.61947ZM70.3564 12.6733C70.3564 14.8328 68.7834 15.6966 67.1893 15.6966C65.8081 15.6966 65.1175 15.0489 65.1175 14.0171C65.1175 13.0332 65.6653 12.4322 67.3321 12.2414L68.9513 12.0494C69.5944 11.9774 70.0467 11.8336 70.3564 11.5455V12.6733Z" fill="black"/>
<path d="M80.4186 15.3377C78.6802 15.3377 77.4182 14.0902 77.4182 11.3787C77.4182 8.6672 78.6327 7.41966 80.4186 7.41966C81.752 7.41966 82.8473 8.11551 83.1332 9.65108H86.1337C85.7764 6.74788 83.6332 4.90021 80.4186 4.90021C76.7515 4.90021 74.3463 7.41966 74.3463 11.3787C74.3463 15.3377 76.7751 17.8571 80.4186 17.8571C83.5618 17.8571 85.8478 15.9857 86.1811 12.9624H83.181C82.9426 14.594 81.7759 15.3377 80.4186 15.3377Z" fill="black"/>
<path d="M90.3225 0.485413L87.322 0.485413V17.5693H90.3225V0.485413Z" fill="black"/>
<path d="M100.029 12.1227C100.029 14.33 98.6007 15.2417 97.2909 15.2417C95.743 15.2417 94.981 14.4739 94.981 12.8905V5.18823L91.9806 5.18823V13.3943C91.9806 16.3456 93.719 17.8571 96.267 17.8571C98.029 17.8571 99.3149 16.9693 100.125 15.7696V17.5679H103.029V5.18701L100.028 5.18701L100.029 12.1227Z" fill="black"/>
<path d="M111.549 4.90028C109.835 4.90028 108.573 5.59613 107.738 6.79581V0.486511L104.738 0.486511V17.5701H107.619V15.7946C108.452 17.0903 109.762 17.8581 111.548 17.8581C114.93 17.8581 117.049 15.3149 117.049 11.3797C117.049 7.44442 114.931 4.90028 111.549 4.90028ZM110.835 15.3606C108.882 15.3606 107.668 13.993 107.668 11.3775C107.668 8.76206 108.882 7.39443 110.835 7.39443C112.788 7.39443 114.002 8.66635 114.002 11.2815C114.002 13.8967 112.788 15.3606 110.835 15.3606Z" fill="black"/>
</g>
<defs>
<clipPath id="clip0_44_1746">
<rect width="120" height="17.9221" fill="white" transform="translate(0 0.0389404)"/>
</clipPath>
</defs>
</svg>
